<svg width="578" height="468" viewBox="0 0 578 468" fill="none" xmlns="http://www.w3.org/2000/svg">
<path fill-rule="evenodd" clip-rule="evenodd" d="M220.802 245.013C221.546 245.268 221.821 244.785 221.625 243.566C220.881 243.233 220.607 243.715 220.802 245.013ZM478.924 59.2575C477.746 59.3657 478.412 60.5323 479.112 60.9684C479.049 60.3984 478.987 59.8284 478.924 59.2575ZM410.238 230.753C410.941 230.214 410.69 229.758 409.489 229.387C408.805 229.944 409.056 230.401 410.238 230.753ZM144.001 227.824C140.182 227.21 137.223 221.409 134.074 222.63C130.132 224.159 126.524 231.059 123.831 234.166C125.907 235.838 128.205 237.34 130.403 238.846C132.671 240.4 132.089 240.949 134.375 239.103C136.039 237.76 137.372 235.341 138.752 233.691C140.41 231.707 142.516 229.943 144.001 227.824ZM232.013 447.567C232.689 447.625 233.147 432.334 233.696 430.23C234.914 425.559 237.038 420.857 239.389 416.657C240.393 414.865 242.186 412.552 242.948 410.713C244.121 407.878 242.222 405.942 241.687 402.688C240.546 395.749 242.059 389.617 244.484 383.184C240.019 382.166 235.711 380.491 231.17 379.793C231.17 385.933 230.564 391.079 228.039 396.711C227.406 398.122 226.133 399.267 226.678 400.993C226.855 401.555 228.415 401.92 228.79 402.437C230.893 405.348 231.232 407.662 231.346 411.292C231.725 423.487 230.396 435.458 232.013 447.567ZM200.387 236.622C202.855 238.712 210.734 223.958 213.444 224.042C219.205 224.222 211.02 238.727 210.519 240.502C212.823 239.679 215.003 234.451 216.235 232.424C217.292 230.687 221.175 222.16 223.394 221.633C227.721 220.608 225.802 228.492 225.196 230.341C223.835 234.501 222.503 238.618 221.315 242.833C223.843 241.45 225.718 233.175 226.853 230.472C228.42 226.734 229.676 222.637 232.121 219.368C233.791 217.138 236.536 213.992 239.548 213.835C243.21 213.644 244.587 217.555 247.886 218.286C248.326 209.953 247.508 201.576 248.48 193.267C241.968 193.404 235.42 193.706 228.991 194.818C225.37 195.443 222.966 195.418 221.182 198.813C219.8 201.443 218.72 204.192 217.414 206.861C212.395 217.121 207.029 227.309 200.387 236.622ZM117.998 205.519C113.243 210.409 108.944 215.466 104.465 220.595C99.9736 225.736 93.7276 229.034 89.4852 234.343C85.6088 239.195 82.6987 244.78 79.0027 249.79C74.9116 255.337 71.5261 261.548 68.0422 267.5C71.633 268.158 72.5181 268.232 74.8441 265.559C76.7699 263.346 78.3459 260.682 80.2897 258.451C84.8083 253.262 89.1645 249.036 94.8111 244.97C100.33 240.997 107.439 237.52 114.04 235.498C116.614 234.71 117.56 234.909 118.985 232.55C120.008 230.86 120.381 228.743 121.418 227.012C123.659 223.276 127.198 221.177 130.716 218.807C126.741 214.116 121.976 210.283 117.998 205.519ZM435.53 63.1471C434.226 64.1249 434.051 67.7973 433.452 69.3227C432.352 72.1246 430.792 74.754 429.425 77.4298C427.026 82.1272 425.033 87.3859 425.122 92.7743C425.211 98.313 429.497 101.493 434.645 102.498C440.304 103.602 444.646 101.372 449.619 98.9886C454.554 96.6219 458.626 92.8825 462.552 89.1062C465.658 86.118 467.638 81.2507 471.16 79.5742C474.502 77.9818 478.607 76.5739 479.613 71.8491C480.3 68.6214 478.991 68.9999 476.167 69.6884C473.161 70.4198 470.984 72.3556 468.196 73.3951C469.748 69.8498 470.121 66.9397 468.209 63.4656C467.109 61.4646 465.044 58.1536 462.543 58.0738C460.895 58.0214 458.926 59.8267 457.407 60.4078C455.547 61.1178 453.487 61.4448 451.573 61.9736C445.901 63.5437 441.355 63.845 435.53 63.1471ZM446.706 286.451C448.608 286.768 454.736 265.029 455.578 261.944C457.894 253.45 460.031 244.215 459.389 235.355C458.713 226.011 455.836 217.805 452.887 209.026C450.396 201.619 449.31 193.31 448.404 185.529C447.365 176.594 450.968 168.567 453.582 160.179C454.789 156.304 455.425 152.339 456.486 148.441C457.602 144.341 459.573 140.622 460.572 136.428C462.423 128.651 464.471 121.008 466.192 113.183C467.83 105.738 472.303 96.8777 470.919 89.3174C468.59 92.14 465.775 94.6011 463.473 97.3738C461.127 100.203 461.943 100.425 462.227 104.347C462.695 110.824 461.336 118.347 459.831 124.64C456.692 137.758 451.142 149.672 447.092 162.4C445.011 168.943 444.183 176.322 441.238 182.498C438.598 188.036 434.945 192.959 432.145 198.311C429.075 204.176 425.482 209.714 422.125 215.419C420.535 218.122 418.882 220.768 417.471 223.572C416.282 225.935 414.965 231.633 412.636 232.548C420.833 240.405 427.108 248.452 432.757 258.318C437.674 266.905 445.278 276.543 446.706 286.451ZM463.761 153.819C471.497 158.573 475.374 165.556 480.122 173.05C484.859 180.527 489.294 188.181 493.51 195.964C501.897 211.445 508.068 226.824 512.703 243.849C514.793 251.528 517.836 258.983 520.008 266.501C522.015 273.448 522.667 280.516 525.555 287.172C526.353 289.01 526.969 293.075 529.084 293.724C531.576 294.489 538.263 291.063 540.783 290.432C548.968 288.385 557.504 287.973 565.898 288.913C566.389 286.015 563.07 280.301 562.035 277.477C560.326 272.812 558.789 267.836 556.497 263.425C552.549 255.828 547.985 248.439 543.417 241.28C538.578 233.696 534.598 225.56 529.649 218.164C527.365 214.75 524.1 210.145 522.599 206.35C521.857 204.475 521.625 203.751 520.729 202.161C519.949 200.771 519.036 199.401 518.211 198.026C507.806 180.703 500.12 163.122 493.431 144.238C489.769 133.902 486.709 123.498 483.811 112.918C481.087 102.977 480.571 92.7246 477.546 82.8165C475.766 84.0114 472.781 83.844 472.836 86.2125C472.846 86.6777 475.342 89.9939 475.616 90.6385C476.168 91.946 476.508 93.3272 476.76 94.7204C477.989 101.49 475.522 108.058 474.651 114.707C473.808 121.141 473.049 126.41 470.859 132.447C468.488 138.984 464.607 146.967 463.761 153.819ZM285.604 193.823C293.166 200.41 300.172 207.804 309.123 212.255C313.327 214.344 316.669 217.307 321.434 218.14C326.217 218.977 331.151 218.503 335.951 218.161C340.858 217.812 345.298 217.754 349.818 215.733C351.762 214.865 354.719 214.023 356.38 212.694C358.025 211.376 359.06 209.24 360.508 207.652C366.444 201.137 373.009 195.94 380.796 192.009C389.475 187.626 394.277 182.648 394.929 172.62C395.657 161.392 394.696 149.945 396.348 138.787C397.848 128.663 400.846 117.842 405.39 108.67C407.724 103.955 410.602 99.5045 413.881 95.3969C415.345 93.565 417.296 92.34 418.804 90.6463C420.585 88.6435 420.316 88.1002 420.316 85.1111C412.731 90.4051 404.21 92.4061 395.341 94.7582C386.347 97.1438 376.668 98.6615 369.69 105.307C365.942 108.877 364.011 109.962 358.941 110.473C353.745 110.997 348.499 111.252 343.331 112.084C333.848 113.612 324.759 116.583 315.65 119.527C297.251 125.476 281.167 135.421 265.215 145.924C258.061 150.636 251.732 156.37 245.247 161.914C237.402 168.621 226.854 177.606 222.951 187.446C233.7 186.473 244.614 183.363 255.046 188.069C255.838 179.322 261.76 170.811 267.537 164.538C272.66 158.975 278.924 153.416 285.192 148.941C300.192 138.232 320.196 135.457 337.658 131.603C347.097 129.52 355.896 127.895 364.86 124.342C367.13 123.442 373.752 119.416 375.002 121.814C375.801 123.348 373.752 125.549 373.242 126.794C372.36 128.943 371.858 131.177 371.347 133.448C369.043 143.691 367.608 154.129 365.379 164.399C365.051 165.911 364.614 172.751 361.901 171.822C360.092 171.203 361.769 160.758 361.638 158.871C338.617 174.666 311.385 183.961 285.604 193.823ZM311.48 370.136C306.365 370.357 301.154 373.116 296.194 374.37C289.509 376.063 282.492 377.786 276.304 380.819C273.01 382.435 272.979 383.379 273.88 387.061C274.589 389.955 275.407 392.757 276.003 395.702C277.482 403.013 279.136 410.231 280.977 417.457C300.032 401.526 324.355 392.516 348.124 386.379C351.487 385.51 354.913 385.243 358.322 384.649C361.308 384.129 364.71 384.499 367.542 383.911C369.361 383.533 371.005 382.305 372.864 381.874C376.886 380.94 381.679 380.865 385.549 379.431C390.728 377.514 396.521 374.978 401.645 372.365C407.239 369.509 411.74 367.424 412.878 361.285C413.781 356.416 416.047 351.867 416.75 347.087C417.667 340.855 416.529 335.317 416.146 329.087C415.258 314.67 413.165 300.097 409.506 286.035C405.997 272.552 403.493 258.75 401.075 245.082C400.603 242.418 399.662 239.964 399.045 237.345C398.017 232.991 395.975 234.107 392.028 234.363C384.646 234.84 376.841 231.891 370.711 227.909C367.816 226.029 364.158 221.732 360.847 220.808C357.899 219.985 354.89 223.975 352.074 225.313C345.349 228.507 337.102 229.371 329.761 229.875C313.747 230.974 301.612 220.533 290.7 209.912C283.375 218.119 275.437 225.922 266.932 232.895C259.923 238.642 253.966 246.104 248.132 252.946C242.652 259.375 238.219 269.375 230.776 273.88C226.436 276.507 223.2 274.844 219.009 272.203C215.683 270.105 212.015 268.962 208.665 267.026C193.202 258.086 178.6 247.989 163.492 238.512C160.188 236.44 154.994 231.564 151.106 231.214C148.225 230.953 148.452 231.675 146.786 234.064C145.171 236.381 143.534 238.68 141.932 241.004C135.65 250.114 128.954 259.517 123.863 269.355C134.946 266.707 145.424 266.3 156.331 267.864C166.364 269.303 179.174 271.041 188.056 276.475C191.85 278.796 195.576 281.403 199.361 284.042C204.112 287.354 207.801 291.985 213.06 294.483C217.596 296.637 222.504 297.612 227.219 299.217C232.516 301.019 240.031 304.379 245.657 302.92C250.451 301.676 254.466 297.416 258.074 294.482C262.77 290.665 268.476 288.055 273.227 284.497C281.647 278.192 290.437 272.804 299.493 267.169C310.306 260.439 320.68 252.705 331.904 246.78C334.111 245.615 336.293 244.807 338.348 243.415C340.278 242.105 341.669 239.71 343.992 241.418C346.058 242.934 345.156 245.728 344.531 247.673C343.945 249.497 343.403 250.08 343.781 251.671C344.133 253.152 346.406 255.423 347.187 256.871C350.876 263.705 353.511 271.043 357.045 277.956C360.485 284.679 364.366 291.147 367.564 297.997C373.877 311.519 382.691 323.501 388.282 337.456C385.707 338.513 385.386 336.338 383.389 336.132C381.206 335.906 381.996 336.322 379.828 337.888C376.922 339.989 373.804 341.317 370.684 342.955C363.74 346.604 356.628 350.897 349.134 353.418C336.261 357.75 324.397 365.404 311.48 370.136ZM532.977 307.008C532.532 310.208 531.96 313.383 531.495 316.577C531.167 318.836 529.905 322.107 530.192 324.342C533.508 322.773 537.077 317.514 539.637 323.266C541.162 326.692 539.25 333.493 538.8 337.18C542.548 336.418 541.701 327.195 547.69 330.172C552.295 332.46 549.073 344.092 552.673 345.225C555.16 341.296 554.75 332.383 555.564 327.706C555.945 325.514 555.399 322.569 557.96 322.427C560.178 322.303 561.934 325.524 562.984 326.996C563.984 321.652 566.682 316.908 565.504 311.987C564.777 308.944 564.031 305.898 563.252 302.866C562.794 301.081 562.306 295.602 560.757 294.376C557.874 292.092 547.34 296.158 544.155 297.075C541.249 297.912 537.544 298.705 534.87 300.115C532.061 301.598 532.922 303.732 532.977 307.008ZM439.635 123.054C443.949 122.581 447.688 119.962 450.999 117.231C456.424 112.756 457.247 109.251 458.278 102.356C451.32 105.754 446.181 108.564 438.33 108.706C429.343 108.868 424.926 103.589 420.794 96.3248C419.685 98.0177 418.103 99.8135 417.294 101.669C416.272 104.012 416.401 103.525 416.697 105.904C417.155 109.577 418.981 114.282 420.836 117.505C424.842 124.463 432.717 125.404 439.635 123.054ZM262.008 402.582H270.167C269.699 399.587 269.231 396.593 268.764 393.598C268.356 390.984 269.033 387.307 266.469 386.852C264.346 386.476 262.239 388.833 260.079 388.622C257.613 388.381 256.196 386.609 253.338 387.322C249.27 388.338 250.083 392.801 250.022 396.547C249.999 398.018 249.434 400.23 249.893 401.66C250.693 404.156 250.025 403.16 252.5 403.403C255.407 403.689 259.014 402.745 262.008 402.582ZM464.274 41.8725C467.264 42.3489 475.004 48.7219 477.189 47.2017C480.156 45.1388 471.627 39.4397 469.88 38.5426C461.341 34.1577 445.368 37.6224 439.628 45.6281C443.39 45.9947 447.987 42.5421 451.846 41.9746C455.981 41.3669 460.12 41.8828 464.274 41.8725ZM462.191 206.806C464.625 216.63 468.994 227.157 468.968 237.369C468.94 247.985 466.601 257.619 462.313 267.338C460.168 272.201 458.248 277.118 455.81 281.845C454.682 284.035 453.644 286.718 452.084 288.628C450.159 290.983 449.562 290.809 447.273 288.938C446.25 291.56 445.177 294.262 441.699 292.5C439.194 291.23 439.248 288.084 438.428 285.746C436.23 279.477 431.533 274.07 428.216 268.359C424.815 262.504 421.946 256.205 418.183 250.576C416.372 247.866 414.213 245.343 412.279 242.711C410.811 240.717 408.572 236.105 406.534 234.935C406.265 237.564 409.064 241.393 410.097 243.961C411.455 247.332 412.62 250.799 413.599 254.299C415.503 261.096 416.652 268.199 418.102 275.109C420.692 287.462 423.747 299.735 425.481 312.272C427.094 323.937 427.523 335.988 426.297 347.704C425.772 352.736 422.827 356.992 420.842 361.575C418.144 367.805 414.865 371.69 409.445 376.11C399.602 384.136 388.705 388.938 376.717 392.521C374.481 393.189 372.403 392.898 370.305 393.352C367.951 393.859 366.078 395.061 363.52 395.462C356.916 396.496 350.199 397.713 343.824 399.588C338.799 401.067 333.836 402.607 328.865 404.144C325.076 405.315 320.409 406.403 316.762 408.129C307.766 412.387 299.328 417.382 290.98 422.674C288.532 424.227 286.728 425.167 284.923 427.463C282.97 429.948 283.253 431.704 282.188 434.538C281.195 437.183 279.462 438.672 277.107 436.474C274.905 434.418 275.775 430.082 275.596 427.54C275.327 423.705 273.059 409.045 270.425 407.819C268.523 406.934 262.962 408.837 260.656 409.091C257.667 409.42 254.974 409.412 251.998 409.003C252.982 413.108 249.389 418.658 247.879 422.267C245.306 428.422 243.303 434.418 242.236 440.968C241.51 445.434 241.743 449.918 241.058 454.436C240.352 459.1 241.423 466.412 235.101 467.112C225.067 468.223 222.508 448.108 221.367 441.363C219.576 430.785 220.993 420.361 222.049 409.726C222.136 408.864 222.573 405.075 222.184 404.387C221.866 403.827 219.045 402.86 218.682 402.601C215.501 400.336 216.796 399.132 217.743 395.758C219.552 389.311 219.027 381.255 223.374 375.618C226.699 371.305 234.163 373.925 238.464 375.089C241.669 375.957 244.836 377.125 247.95 378.281C250.103 379.08 252.508 381.471 254.394 381.856C258.155 382.626 260.926 377.814 263.732 376.109C268.794 373.035 274.073 370.208 279.528 368.147C289.549 364.359 299.92 362.184 310.202 358.996C316.497 357.045 322.714 354.912 328.694 352.092C333.112 350.009 337.568 347.077 342.349 345.666C348.37 343.888 354.481 341.416 360.358 338.959C366.609 336.347 373.449 334.672 379.865 332.555C366.509 312.963 355.095 292.007 345.922 270.117C344.864 267.593 343.848 265.055 342.911 262.483C342.434 261.174 341.263 255.305 340.021 254.476C337.763 252.972 328.694 259.788 326.168 261.448C317.011 267.458 308.231 274.026 298.692 279.489C290.432 284.219 282.639 289.705 274.739 294.778C270.389 297.572 266.342 301.135 261.918 303.957C257.506 306.77 252.315 312.01 247.088 313.225C245.138 313.679 241.834 313.125 239.863 312.964C237.085 312.738 233.983 312.488 231.281 311.714C225.983 310.199 220.385 308.478 215.208 306.591C205.901 303.2 198.688 294.835 190.298 289.67C180.186 283.444 168.731 281.893 157.43 278.452C145.064 274.687 131.349 274.277 118.298 275.255C118.298 263.323 124.046 254.374 130.319 244.582C125.801 241.61 123.895 239.758 118.838 242.508C115.087 244.548 111.629 246.382 108.149 248.662C104.369 251.14 100.346 253.04 96.5821 255.757C92.491 258.709 88.9122 261.842 85.1342 265.147C82.2933 267.632 79.0574 269.891 76.0858 272.138C73.1509 274.357 70.1621 274.036 66.4089 272.523C65.3023 272.077 61.8458 270.52 61.2608 269.769C60.0816 268.257 60.9538 267.202 61.933 265.208C64.1983 260.592 67.0921 255.907 70.0484 251.687C72.6874 247.921 76.1123 244.776 78.8753 241.103C81.4989 237.618 83.3742 233.571 86.4135 230.413C89.8118 226.879 93.8422 224.044 97.0507 220.28C98.6507 218.402 100.474 216.4 100.6 214.185C100.698 212.485 98.8089 210.839 98.7909 209.619C98.7508 206.756 103.646 203.844 105.69 201.738C108.691 198.645 111.655 195.972 116.29 197.299C119.693 198.273 124.812 202.57 127.347 205.067C130.537 208.211 133.181 211.849 136.471 214.959C138.32 216.708 140.292 218.304 142.204 219.98C143.334 220.971 145.126 223.813 146.376 224.392C147.494 224.912 148.585 224.421 150.147 224.379C149.443 224.397 153.006 224.998 152.816 224.946C154.502 225.399 156.167 225.889 157.828 226.427C164.659 228.638 170.952 232.369 177.115 236.084C192.77 245.52 207.46 255.576 222.792 265.633C227.333 268.611 228.582 268.4 232.068 264.136C235.322 260.158 238.02 255.737 241.076 251.613C246.113 244.818 251.792 238.209 257.739 232.171C263.861 225.957 270.918 220.754 277.461 215.004C279.278 213.407 286.766 208.015 286.293 205.994C286.027 204.852 283.606 202.925 282.839 201.756C281.694 200.014 280.508 198.047 279.664 196.125C274.694 184.809 287.593 184.034 295.141 180.537C304.355 176.267 313.477 171.551 322.895 167.738C327.624 165.825 332.359 164.077 337.133 162.303C341.528 160.669 345.53 158.021 349.855 156.218C353.041 154.89 359.962 154.383 362.085 151.558C363.338 149.892 362.798 144.629 363.018 142.688C363.381 139.466 363.917 136.263 364.758 133.129C363.179 132.844 360.215 134.582 358.78 135.25C356.015 136.536 353.608 137.802 350.54 138.611C343.977 140.339 337.105 140.537 330.638 142.413C320.796 145.271 310.302 146.925 300.675 151.025C289.591 155.746 280.047 164.049 272.261 173.012C268.242 177.639 265.046 182.086 262.304 187.578C261.593 189 260.751 193.766 259.659 194.758C258.268 196.022 254.598 194.692 253.018 194.431C253.018 198.637 253.105 202.849 252.955 207.048C252.795 211.48 253.592 218.279 252.062 222.367C250.626 226.205 247.945 225.411 245.106 223.502C241.333 220.966 239.398 219.511 236.016 223.441C230.132 230.277 227.906 240.896 223.871 248.897C222.549 251.518 219.29 257.005 217.508 251.619C216.209 247.693 218.363 242.686 217.356 238.807C215.981 241.227 211.87 248.426 208.617 248.406C204.141 248.379 205.601 241.415 205.75 238.576C203.111 241.399 195.365 250.622 193.491 243.229C192.051 237.555 196.071 231.924 198.925 227.456C202.247 222.258 205.511 216.98 208.958 211.87C212.33 206.87 214.588 201.203 218.007 196.172C215.4 196.534 210.356 195.68 211.958 191.638C212.797 189.524 215.449 190.413 216.744 189.1C218.092 187.734 218.819 183.854 219.574 182.064C223.292 173.24 228.625 165.985 234.791 158.81C245.687 146.131 259.599 136.009 273.625 127.517C290.338 117.4 307.566 111.248 326.28 106.302C335.148 103.96 344.14 102.882 353.104 101.195C356.825 100.494 360.599 100.099 363.544 97.737C367.933 94.2139 370.828 91.606 376.119 89.3578C380.395 87.5413 384.452 86.7035 389.116 85.9274C394.114 85.0948 399.849 86.2021 404.652 84.7883C408.643 83.6122 413.295 81.0593 416.92 79.0162C418.746 77.9878 421.98 77.4083 422.965 76.5336C424.868 74.8459 426.128 70.6378 427.343 68.3716C424.337 69.1605 423.191 67.0204 422.387 64.4279C421.048 60.1168 421.035 61.5496 416.857 59.7443C414.383 58.6747 413.583 55.8204 411.622 54.8074C409.519 53.7198 406.183 56.065 403.7 55.3027C401.686 54.6838 399.718 52.5154 399.828 50.207C399.873 49.2439 400.887 48.3889 400.904 47.6043C400.948 45.7655 399.449 44.75 399.668 42.7343C400.007 39.6148 401.589 40.1419 400.246 36.7613C398.909 33.3963 399.43 32.7327 399.832 29.2449C399.944 28.2808 399.449 26.7279 400.121 25.9081C400.513 25.4291 401.947 25.3553 402.093 25.1132C402.64 24.2093 402.658 23.4667 402.768 21.8091C402.831 20.8648 402.54 18.9762 403.52 18.2775C404.372 17.6706 405.58 18.7986 406.326 18.4414C406.974 18.1315 407.534 16.5872 408.597 16.4009C412.523 15.7125 411.325 19.7154 413.331 14.7193C414.492 11.8255 415.384 10.6408 417.468 8.9952C418.374 9.41412 418.938 9.24501 419.163 8.48615C419.467 7.93761 419.773 7.38993 420.079 6.84224C421.704 6.45681 421.937 7.67665 423.195 6.47827C425.306 4.46695 423.134 0.0125215 427.399 1.20489C430.493 2.06934 431.244 6.0439 434.48 6.99848C434.927 5.70396 434.869 1.91997 436.748 1.53711C438.661 1.14737 440.118 4.64121 440.814 5.78207C441.266 4.80088 442.015 1.86245 442.761 1.14394C444.903 -0.920599 444.255 1.07956 446.151 1.35426C446.448 1.70364 446.747 2.05388 447.044 2.40413C448.036 1.91911 449.012 1.40748 449.973 0.865808C452.052 0.471785 451.311 0.687253 453.124 1.42207C454.574 2.0101 453.707 2.68226 455.468 3.05225C456.748 3.31922 457.83 1.98864 459.254 2.3964C459.668 2.57753 460.084 2.75952 460.498 2.94065C461.084 4.24462 461.985 4.47553 463.199 3.63255C464.63 4.22401 466.562 6.60102 468.086 6.52291C471 6.37096 470.314 2.35262 473.509 2.5492C474.693 2.62131 477.755 5.81298 478.6 6.76069C479.785 8.09041 479.449 9.239 480.933 10.7344C483.083 12.9002 481.822 11.7388 483.874 12.7191C486.933 14.181 488.06 13.6282 489.32 17.1469C490.416 20.2072 491.03 24.0144 491.042 27.2567C491.049 29.2801 489.597 33.7422 492.399 32.7636C494.366 32.0769 494.036 27.1915 496.146 28.7238C497.751 29.8878 494.585 36.1124 494.548 37.5726C494.442 41.7738 495.112 42.1103 492.513 45.2496C491.281 46.7364 488.459 49.4765 487.834 51.4028C487.095 53.6811 489.058 57.6274 489.511 59.6627C490.493 64.0802 489.663 65.0134 486.752 68.4849C486.439 68.672 486.127 68.86 485.814 69.0471C484.26 69.0437 483.828 69.8206 484.52 71.3761C483.901 73.111 483.975 74.7832 483.099 76.5267C482.62 77.4796 480.506 79.4085 480.398 80.351C480.207 82.0319 481.04 82.3263 482.452 84.0689C488.146 91.0944 490.753 100.198 493.57 108.649C498.53 123.533 504.645 138.051 510.567 152.619C512.875 158.297 515.214 163.751 517.609 169.493C520.59 176.641 524.779 183.168 528.323 190.095C530.772 194.884 533.272 200.141 536.333 204.272C540.183 209.469 542.347 216.15 545.724 221.776C549.331 227.785 553.542 233.706 557.021 239.891C560.348 245.805 564.458 251.219 567.617 257.294C571.561 264.878 576.153 273.99 577.238 282.585C577.622 285.631 578.817 290.654 576.931 293.261C574.978 295.959 569.6 297.087 566.871 295.073C569.6 301.438 571.296 308.57 572.521 315.377C573.049 318.318 573.786 320.914 573.14 323.92C572.561 326.606 573.521 325.042 571.356 326.613C569.543 327.928 570.381 324.22 568.957 328C568.656 328.797 569.246 331.009 569.224 331.934C569.142 335.648 568.866 339.431 568.721 343.167C568.612 346.001 569.068 348.392 565.592 348.092C562.806 347.852 561.427 344.888 560.19 342.796C559.726 346.127 559.46 349.451 559.076 352.791C558.737 355.755 559.416 358.682 555.629 358.363C549.42 357.838 546.972 346.563 545.399 341.852C542.57 345.587 541.195 353.001 539.951 357.568C538.766 361.915 537.385 371.167 531.332 365.475C527.299 361.682 528.861 354.222 529.584 349.368C529.823 347.767 533.228 333.7 531.636 332.889C529.36 335.329 526.709 339.316 522.96 337.164C519.591 335.231 520.687 330.935 520.956 327.834C521.719 319.013 524.74 310.557 526.98 302.009C525.706 301.723 522.607 301.469 521.557 300.519C520.212 299.301 521.042 298.709 520.451 297.153C519.652 295.045 518.217 292.904 517.084 290.902C513.392 284.379 512.255 277.876 510.347 270.778C508.505 263.922 505.035 257.887 503.194 250.943C501.154 243.25 498.981 235.69 496.574 228.028C491.318 211.289 483.747 195.352 475.044 180.17C473.9 178.177 464.537 156.646 463.127 157.282C462.121 157.737 461.545 163.308 461.161 164.813C460.272 168.3 460.097 171.965 459.888 175.559C456.457 183.939 460.109 198.402 462.191 206.806Z" fill="#1C091B"/>
<path fill-rule="evenodd" clip-rule="evenodd" d="M145.752 178.432C149.248 179.267 150.498 171.103 150.89 168.576C151.522 164.478 152.248 160.954 154.451 157.371C155.523 155.629 156.803 153.837 158.193 152.335C159.004 151.46 161.035 150.32 161.46 149.381C162.633 146.786 161.27 140.261 161.285 137.341C161.295 135.465 160.072 126.739 162.269 126.13C165.122 125.338 165.866 133.296 166.182 135.088C166.543 137.139 166.484 139.117 166.702 141.147C166.904 143.041 167.933 144.215 168.328 145.477C169.455 149.085 166.778 152.115 164.86 155.365C162.724 158.983 160.414 162.497 158.915 166.447C157.289 170.731 157.393 175.244 156.122 179.582C154.055 186.631 145.386 190.475 138.364 188.407C134.631 187.308 135.416 184.78 134.233 181.867C133.785 180.762 132.527 180.148 132.152 178.68C131.756 177.126 132.119 175.102 132.424 173.533C133.9 165.935 136.297 157.979 138.612 150.587C126.011 157.541 112.667 162.122 98.1572 161.862C90.9454 161.731 85.6912 160.181 80.4669 166.356C76.4184 171.141 76.4235 179.558 74.7713 185.509C72.978 191.969 71.3608 200.244 67.2782 205.65C62.3532 212.174 55.6289 211.1 55.1269 202.4C54.6984 194.984 58.38 187.955 57.7626 180.426C57.4521 176.638 55.9633 173.3 56.0548 169.463C56.1334 166.166 56.7791 163.069 57.388 159.823C50.1814 160.699 44.5996 163.667 39.4796 168.646C34.6854 173.307 32.686 179.063 28.7274 184.394C25.1151 189.258 21.9184 195.952 14.7879 195.786C5.68615 195.574 5.11318 184.344 8.52622 178.342C10.2708 175.275 12.6944 172.874 14.9119 170.171C17.3671 167.181 17.657 164.778 18.1633 160.958C18.5481 158.044 18.6542 154.196 21.2702 152.274C23.6228 150.545 26.5766 151.386 28.753 149.094C30.8354 146.902 32.4791 143.585 34.3493 141.162C36.6849 138.138 39.1025 135.012 41.1797 131.802C45.6489 124.889 51.5223 120.08 57.713 114.672C55.4681 113.27 49.5494 114.819 46.7692 114.376C42.2016 113.646 36.2906 111.467 32.7519 108.333C25.4058 101.825 21.8756 93.3615 21.5139 83.5796C21.1658 74.1844 22.6367 62.8528 29.6039 55.8709C33.1547 52.3118 37.7008 49.197 42.1871 46.9277C45.1743 45.4175 51.3265 42.1234 54.7805 43.4836C62.7551 46.6267 44.7193 59.1273 42.341 61.1273C34.7641 67.4993 30.3514 73.6493 30.5275 83.842C30.6977 93.7526 40.227 98.4643 48.1973 101.743C52.3313 103.444 57.3247 104.808 61.9427 104.684C67.1756 104.544 70.7349 101.532 75.5016 99.7653C84.8839 96.2886 94.509 93.9507 104.18 91.6086C113.704 89.3007 124.063 89.8222 133.816 88.3153C142.984 86.8986 151.551 85.1516 160.217 81.8103C169.191 78.3507 176.113 68.0319 185.901 66.9462C191.972 66.2738 189.004 70.5799 186.381 72.7882C183.243 75.4305 179.835 77.7324 176.695 80.3833C168.695 87.1344 160.315 91.106 150.177 93.6797C142.812 95.5485 134.872 97.2963 127.045 98.4112C117.164 99.8194 107.22 99.3794 97.5132 101.944C91.7664 103.462 86.1855 105.395 80.7636 107.861C78.5427 108.871 73.9495 110.49 73.5381 112.287C73.0045 114.612 74.862 114.566 72.6231 116.708C68.8517 120.318 63.9464 122.87 60.1374 126.616C55.8949 130.788 51.8592 134.834 48.4223 139.727C45.0135 144.58 42.2914 149.284 37.2433 152.631C35.5697 153.741 32.7288 155.687 30.8268 156.197C29.0763 156.667 28.2767 155.948 26.7784 156.924C22.7932 159.518 25.1809 167.62 24.129 171.631C22.7838 176.768 19.3392 180.625 17.1944 185.39C20.1952 184.739 22.2904 179.759 23.8332 177.41C25.5623 174.776 27.7525 173.001 29.9528 170.724C34.5794 165.938 35.804 159.392 41.3037 154.885C51.2666 146.722 66.7531 147.426 75.0655 136.484C76.4116 134.711 77.6764 129.588 79.2918 128.473C82.2508 126.431 82.0002 132.533 81.6957 134.344C80.655 140.528 76.8494 147.835 71.874 151.738C69.6223 153.506 66.4726 154.315 64.5185 156.609C64.0396 156.798 63.5624 156.99 63.0835 157.18C63.3692 158.199 63.5248 159.235 63.5479 160.287C63.5932 162.126 63.1485 163.919 63.0741 165.773C62.8885 170.441 63.919 174.432 64.852 178.903C65.5199 182.097 63.7232 188.755 65.1548 191.359C67.9837 181.846 71.3104 170.859 76.6698 162.405C77.9364 160.405 80.448 158.754 81.4452 156.695C81.919 156.167 82.3927 155.639 82.8665 155.111C82.0361 154.34 81.3126 153.481 80.696 152.533C77.4823 145.765 84.5238 149.949 87.3331 150.524C91.8493 151.448 97.4773 149.55 102.167 149.407C106.737 149.269 111.244 149.116 115.712 148.405C120.536 147.638 125.541 146.479 130.261 145.211C134.999 143.937 139.378 141.316 143.984 140.164C139.38 137.011 137.922 132.905 136.329 127.778C135.282 124.407 131.563 116.227 133.904 112.806C136.441 109.095 137.347 114.802 138.17 116.823C139.562 120.241 141.669 126.072 144.248 128.636C145.639 130.019 147.517 129.867 148.759 131.711C149.673 133.067 149.797 134.942 149.939 136.515C150.363 141.159 148.53 144.877 146.896 149.105C143.084 158.962 141.544 169.505 136.558 178.884C139.591 179.174 142.729 178.738 145.752 178.432Z" fill="#1C091B"/>
<path fill-rule="evenodd" clip-rule="evenodd" d="M209.533 100.765C211.966 100.191 219.623 99.354 217.402 94.885C215.154 90.3645 209.171 97.675 209.533 100.765ZM282.012 65.1743C280.583 64.7299 278.317 63.6943 276.787 63.8042C274.974 63.9346 273.627 65.2507 271.788 65.4248C268.035 65.78 265.133 64.1757 262.68 68.1908C267.898 68.1908 278.335 69.9634 282.012 65.1743ZM183.578 158.822C188.543 159.516 191.01 137.542 191.272 134.664C189.046 134.436 183.042 138.818 182.518 140.837C181.944 143.054 183.924 146.612 184.164 148.918C184.521 152.33 184.143 155.462 183.578 158.822ZM211.247 33.3934C205.268 33.9768 198.579 35.9157 193.093 32.5843C188.644 29.8844 186.996 24.1876 183.249 20.8433C183.249 30.4884 191.905 38.0881 200.713 41.1484C205.197 42.7064 212.069 40.3565 216.032 42.896C217.181 43.6321 219.631 46.9858 219.72 48.3714C220.027 53.0936 216.668 48.8673 214.765 49.0132C212.121 49.2156 208.441 56.1993 206.236 58.3227C204.578 59.9202 202.707 61.2166 200.834 62.5893C200.217 63.0423 197.045 64.6501 196.886 65.4274C196.747 66.1172 198.486 68.6524 198.853 69.3062C201.375 73.8087 204.413 77.0354 208.399 80.2115C210.363 81.7764 212.409 82.6481 214.378 83.9479C215.02 84.3734 217.632 87.9382 216.873 87.7881C217.971 84.4481 221.096 80.5796 223.176 77.6265C225.307 74.5989 228.117 71.427 231.69 70.201C233.26 69.6622 235.859 69.1998 237.493 69.0677C238.641 69.0273 239.777 69.1217 240.902 69.3508C242.541 70.0749 243.182 69.4924 242.825 67.6006C244.546 64.0195 243.532 59.511 245.72 55.8733C248.288 51.6024 252.489 49.6678 257.302 50.1491C259.465 50.3653 261.795 51.2953 263.937 50.9161C266.06 50.5403 268.465 48.8244 270.542 48.0849C278.609 45.2107 288.564 41.718 294.889 35.7304C295.849 34.8227 298.56 32.3038 298.773 30.9989C298.208 29.7257 297.645 28.4542 297.081 27.1818C296.933 25.3167 296.027 24.8079 294.364 25.6564C292.405 25.6152 288.69 27.8673 286.729 28.5117C284.24 29.3301 281.737 30.05 279.288 30.974C275.037 32.5775 270.898 34.2247 266.436 35.1788C261.814 36.1654 259.614 36.7668 257.182 32.3801C254.804 28.0921 255.141 25.5844 249.606 26.2115C244.671 26.7692 240.536 28.6344 235.988 30.6025C232.967 31.9091 229.031 34.3157 225.959 34.8313C223.682 35.2139 221.224 34.3251 219.03 33.867C216.26 33.2896 214.064 33.3908 211.247 33.3934ZM268.56 58.297H271.045C269.119 57.1628 267.192 56.0277 265.265 54.8935C262.553 59.2794 255.774 57.3721 251.665 59.9854C248.29 62.132 245.122 71.2795 248.362 74.6109C252.865 79.2412 255.082 68.9673 256.361 66.6002C258.963 61.7828 262.881 58.1752 268.56 58.297ZM189.796 68.1162C187.779 64.3035 189.101 60.6589 192.094 58.6359C196.411 55.718 200.756 52.5213 204.99 49.2886C197.794 48.1578 192.638 45.7736 186.771 41.3766C180.003 36.3027 178.076 31.614 178.266 23.044C178.361 18.7422 177.761 6.51562 184.691 10.0649C190.416 12.9974 191.206 21.1977 197.365 23.9774C203.45 26.7228 210.618 23.8753 217.017 26.0133C218.838 26.6225 223.71 30.9071 225.19 30.8873C227.156 30.8599 232.094 26.5066 233.953 25.4728C238.617 22.8801 244.649 20.3517 249.845 19.6045C253.108 19.1352 254.171 18.7988 256.536 21.2088C259.184 23.9071 260.014 27.2428 260.959 30.7483C271.006 26.6036 281.155 22.7351 291.485 19.3557C294.766 18.2824 297.019 16.9096 299.818 15.18C303.825 12.704 306.055 13.8502 306.784 18.9696C308.067 27.9883 302.567 33.7563 297.787 40.5066C295.151 44.2293 293.35 46.8589 289.065 48.7601C284.604 50.7385 279.234 50.101 274.389 51.5879C275.633 53.1047 276.289 56.6369 277.384 57.7033C278.275 58.5698 282.535 58.4257 283.973 59.1824C288.28 61.4508 287.767 65.2369 285.099 68.981C282.088 73.2038 277.638 73.982 272.774 74.35C270.597 74.5139 268.656 74.5439 266.478 74.3895C265.068 74.29 260.16 72.7637 259.097 73.2158C257.838 73.7503 257.546 76.5327 256.973 77.8033C256.062 79.8229 255.049 81.8665 252.906 82.8C251.052 83.6064 248.961 83.3885 247.275 82.2809C245.015 80.7975 245.635 79.0464 244.212 77.1418C244.078 75.1359 243.225 74.7559 241.651 75.9999C240.45 76.4211 239.25 76.8467 238.053 77.2765C235.575 78.1808 233.26 79.0533 231.079 80.5727C226.901 83.482 224.371 88.3904 219.715 90.4357C222.753 95.6383 220.856 102.716 215.744 105.418C214.591 106.026 213.179 106.774 211.955 107.169C211.043 107.463 208.655 107.225 208.039 107.735C207.146 108.476 206.655 115.484 206.03 117.046C203.881 122.415 199.316 125.086 196.615 129.956C193.979 134.708 194.545 142.084 193.778 147.437C192.828 154.067 192.225 161.027 189.391 167.179C187.495 171.295 181.809 176.175 176.787 175.364C169.404 174.171 172.614 164.72 174.878 160.647C178.371 154.366 178.367 149.613 177.481 142.664C174.566 143.098 167.345 145.955 167.692 140.39C167.929 136.594 176.108 133.114 178.974 131.208C185.454 126.899 192.084 121.885 197.556 116.365C199.818 114.082 203.055 109.868 204.206 106.747C205.044 104.469 204.864 102.254 205.046 99.8722C205.214 97.6802 207.133 94.6697 207.038 92.7539C206.897 89.9123 199.43 85.3721 197.295 82.3633C194.253 78.077 191.695 73.0082 189.796 68.1162Z" fill="#1C091B"/>
<path fill-rule="evenodd" clip-rule="evenodd" d="M339.362 77.658C341.651 77.358 350.447 74.916 351.958 77.202C354.714 81.372 346.612 82.1486 344.575 82.5266C335.573 84.1946 326.766 86.4129 318.037 88.8978C300.672 93.8401 282.967 100.042 266.794 108.094C264.261 109.354 256.818 114.485 254.283 111.893C251.007 108.545 258.954 104.83 260.774 103.787C268.841 99.1629 277.365 95.0152 286.023 91.6098C303.078 84.9035 321.097 79.6757 339.362 77.658Z" fill="#1C091B"/>
<path fill-rule="evenodd" clip-rule="evenodd" d="M122.314 297.781C135.232 295.85 149.267 298.7 161.803 302.629C165.82 303.888 170.007 305.35 173.683 307.402C175.664 308.506 180.374 310.473 181.494 312.539C183.365 315.984 181.272 317.453 178.262 316.887C175.401 316.348 171.886 314.699 168.9 313.947C155.226 310.498 141.633 307.911 127.784 306.531C124.471 306.2 122.064 306.585 118.87 307.168C116.484 307.604 110.181 310.203 108.387 308.679C101.901 303.172 119.227 298.123 122.314 297.781Z" fill="#1C091B"/>
<path fill-rule="evenodd" clip-rule="evenodd" d="M323.302 324.281C324.177 329.191 321.685 329.649 317.521 331.944C313.269 334.288 309.021 336.214 304.529 338.106C299.689 340.145 294.617 342.235 289.575 343.723C285.305 344.984 278.719 347.809 274.284 347.39C272.495 347.221 271.338 347.455 271.324 345.234C271.311 342.824 273.573 342.968 275.439 342.436C281.151 340.807 286.682 338.362 292.298 336.422C302.876 332.771 313.471 329.688 323.302 324.281Z" fill="#1C091B"/>
<path fill-rule="evenodd" clip-rule="evenodd" d="M2.87123 84.1581C-0.441552 78.6787 -0.374946 71.3742 0.54171 65.1828C0.850592 63.0958 5.87597 47.6675 8.91234 50.8744C10.7132 52.7768 4.58299 64.8934 3.94108 67.6623C3.16679 71.0006 2.76883 74.3029 3.27919 77.7151C3.41823 78.6375 5.4805 84.4922 2.87123 84.1581Z" fill="#1C091B"/>
<path fill-rule="evenodd" clip-rule="evenodd" d="M176.483 115.26C174.057 111.936 177.305 104.498 178.287 100.964C178.893 98.7858 180.743 90.6059 183.677 92.3519C186.525 94.0466 183.336 101.714 182.766 103.831C181.921 106.972 180.691 115.181 176.483 115.26Z" fill="#1C091B"/>
<path fill-rule="evenodd" clip-rule="evenodd" d="M445.605 292.413C446.051 291.35 446.497 290.288 446.943 289.224C448.076 290.087 449.657 290.511 448.504 291.819C447.795 292.624 446.601 292.623 445.605 292.413Z" fill="#1C091B"/>
<path fill-rule="evenodd" clip-rule="evenodd" d="M404.676 85.0167C402.689 85.3217 401.363 85.3382 399.395 85.2919C401.156 85.1999 402.916 85.1087 404.676 85.0167Z" fill="#1C091B"/>
<path fill-rule="evenodd" clip-rule="evenodd" d="M469.048 239.615C469.043 238.292 469.038 236.968 469.034 235.646C469.039 236.97 469.043 238.293 469.048 239.615Z" fill="#1C091B"/>
<path fill-rule="evenodd" clip-rule="evenodd" d="M149.532 140.396C149.527 139.072 149.523 137.749 149.519 136.427C149.524 137.751 149.528 139.074 149.532 140.396Z" fill="#1C091B"/>
<path fill-rule="evenodd" clip-rule="evenodd" d="M211.25 24.4781C209.929 24.4695 208.609 24.4623 207.289 24.4537C208.616 23.9159 209.933 24.1745 211.25 24.4781Z" fill="#1C091B"/>
<path fill-rule="evenodd" clip-rule="evenodd" d="M220.188 432.099C220.172 432.982 220.155 433.864 220.137 434.745C220.153 433.861 220.17 432.979 220.188 432.099Z" fill="#1C091B"/>
<path fill-rule="evenodd" clip-rule="evenodd" d="M53.4727 114.918C54.1355 114.926 54.7969 114.932 55.4531 114.941C54.7888 114.934 54.1311 114.926 53.4727 114.918Z" fill="#1C091B"/>
<path fill-rule="evenodd" clip-rule="evenodd" d="M426.148 348.755C426.136 347.871 426.126 346.988 426.114 346.109C426.125 346.994 426.136 347.875 426.148 348.755Z" fill="#1C091B"/>
<path fill-rule="evenodd" clip-rule="evenodd" d="M459.737 175.453C459.778 174.57 459.82 173.687 459.861 172.807C459.819 173.691 459.778 174.572 459.737 175.453Z" fill="#1C091B"/>
<path fill-rule="evenodd" clip-rule="evenodd" d="M399.797 41.8385C399.749 42.7212 399.701 43.6047 399.653 44.4844C399.7 43.6009 399.748 42.7205 399.797 41.8385Z" fill="#1C091B"/>
<path fill-rule="evenodd" clip-rule="evenodd" d="M569.372 332.219C569.38 331.335 569.389 330.452 569.398 329.573C569.388 330.456 569.38 331.338 569.372 332.219Z" fill="#1C091B"/>
<path fill-rule="evenodd" clip-rule="evenodd" d="M306.68 27.2865C306.655 26.4029 306.631 25.5194 306.605 24.6406C306.63 25.5251 306.655 26.4058 306.68 27.2865Z" fill="#1C091B"/>
<path fill-rule="evenodd" clip-rule="evenodd" d="M30.6411 84.1718C30.6787 83.2886 30.7157 82.4054 30.7533 81.526C30.715 82.4101 30.6787 83.2914 30.6411 84.1718Z" fill="#1C091B"/>
<path fill-rule="evenodd" clip-rule="evenodd" d="M268.684 74.5851C269.346 74.5825 270.008 74.5792 270.664 74.5765C269.999 74.5792 269.342 74.5825 268.684 74.5851Z" fill="#1C091B"/>
<path fill-rule="evenodd" clip-rule="evenodd" d="M490.891 29.9323C490.848 29.0489 490.804 28.1672 490.761 27.2865C490.805 28.17 490.848 29.0507 490.891 29.9323Z" fill="#1C091B"/>
<path fill-rule="evenodd" clip-rule="evenodd" d="M55.7822 166.854C55.7835 167.738 55.7842 168.621 55.7842 169.5C55.7829 168.616 55.7829 167.735 55.7822 166.854Z" fill="#1C091B"/>
<path fill-rule="evenodd" clip-rule="evenodd" d="M573.426 320.312C573.372 319.43 573.319 318.547 573.265 317.667C573.319 318.55 573.373 319.431 573.426 320.312Z" fill="#1C091B"/>
<path fill-rule="evenodd" clip-rule="evenodd" d="M244.918 313.399C245.58 313.377 246.243 313.357 246.898 313.336C246.234 313.358 245.576 313.379 244.918 313.399Z" fill="#1C091B"/>
<path fill-rule="evenodd" clip-rule="evenodd" d="M459.876 193.312C459.824 192.429 459.773 191.547 459.721 190.667C459.773 191.55 459.824 192.431 459.876 193.312Z" fill="#1C091B"/>
<path fill-rule="evenodd" clip-rule="evenodd" d="M143.254 297.484C142.373 297.49 141.493 297.496 140.613 297.501C141.494 297.496 142.373 297.49 143.254 297.484Z" fill="#1C091B"/>
<path fill-rule="evenodd" clip-rule="evenodd" d="M122.129 297.368C121.248 297.451 120.368 297.534 119.488 297.617C120.369 297.533 121.249 297.451 122.129 297.368Z" fill="#1C091B"/>
<path fill-rule="evenodd" clip-rule="evenodd" d="M459.168 187.359C459.148 186.697 459.128 186.035 459.109 185.375C459.129 186.037 459.149 186.698 459.168 187.359Z" fill="#1C091B"/>
<path fill-rule="evenodd" clip-rule="evenodd" d="M488.901 58.375C488.864 57.7125 488.827 57.0508 488.79 56.3906C488.828 57.0531 488.864 57.714 488.901 58.375Z" fill="#1C091B"/>
<path fill-rule="evenodd" clip-rule="evenodd" d="M286.83 64.3281C286.835 63.6661 286.84 63.0049 286.846 62.3438C286.841 63.0066 286.836 63.6669 286.83 64.3281Z" fill="#1C091B"/>
<path fill-rule="evenodd" clip-rule="evenodd" d="M194.976 246.375C195.339 246.396 195.702 246.417 196.066 246.438C195.252 247.141 194.3 246.418 194.976 246.375Z" fill="#1C091B"/>
<path fill-rule="evenodd" clip-rule="evenodd" d="M235.016 312.717C235.458 312.709 235.899 312.701 236.336 312.694C235.892 312.703 235.454 312.709 235.016 312.717Z" fill="#1C091B"/>
<path fill-rule="evenodd" clip-rule="evenodd" d="M572.76 315.021C572.71 314.359 572.661 313.697 572.611 313.036C572.662 313.7 572.71 314.359 572.76 315.021Z" fill="#1C091B"/>
<path fill-rule="evenodd" clip-rule="evenodd" d="M57.8475 184.714C57.7914 185.375 57.7353 186.037 57.6798 186.698C57.7359 186.035 57.792 185.374 57.8475 184.714Z" fill="#1C091B"/>
<path fill-rule="evenodd" clip-rule="evenodd" d="M360.445 99.5414C359.655 100.131 358.702 99.8013 357.805 99.7808C358.685 99.7008 359.566 99.6214 360.445 99.5414Z" fill="#1C091B"/>
<path fill-rule="evenodd" clip-rule="evenodd" d="M568.709 340.818C568.72 340.155 568.73 339.493 568.74 338.833C568.73 339.497 568.72 340.157 568.709 340.818Z" fill="#1C091B"/>
<path fill-rule="evenodd" clip-rule="evenodd" d="M419.452 365.292C419.503 364.629 419.555 363.967 419.607 363.307C419.555 363.971 419.503 364.631 419.452 365.292Z" fill="#1C091B"/>
<path fill-rule="evenodd" clip-rule="evenodd" d="M46.2109 114.23C46.6533 114.255 47.0949 114.281 47.5312 114.307C47.0882 114.282 46.6496 114.255 46.2109 114.23Z" fill="#1C091B"/>
<path fill-rule="evenodd" clip-rule="evenodd" d="M339.32 77.7809C338.44 77.8523 337.56 77.9238 336.68 77.9952C337.56 77.9238 338.44 77.8523 339.32 77.7809Z" fill="#1C091B"/>
<path fill-rule="evenodd" clip-rule="evenodd" d="M275.704 428.792C275.644 429.453 275.585 430.116 275.527 430.776C275.585 430.112 275.644 429.452 275.704 428.792Z" fill="#1C091B"/>
<path fill-rule="evenodd" clip-rule="evenodd" d="M145.895 178.33C145.015 178.396 144.135 178.462 143.254 178.529C144.135 178.462 145.015 178.396 145.895 178.33Z" fill="#1C091B"/>
<path fill-rule="evenodd" clip-rule="evenodd" d="M256.801 402.769C258.561 402.699 260.321 402.629 262.082 402.559C260.322 402.629 258.561 402.699 256.801 402.769Z" fill="#1C091B"/>
<path fill-rule="evenodd" clip-rule="evenodd" d="M417.483 340.818C417.527 339.714 417.571 338.611 417.614 337.51C417.571 338.614 417.527 339.716 417.483 340.818Z" fill="#1C091B"/>
<path fill-rule="evenodd" clip-rule="evenodd" d="M452.867 42.2894C453.967 42.2094 455.067 42.1294 456.168 42.0493C455.068 42.1294 453.967 42.2094 452.867 42.2894Z" fill="#1C091B"/>
<path fill-rule="evenodd" clip-rule="evenodd" d="M138.633 266.959C139.733 267.029 140.834 267.101 141.934 267.171C140.833 267.1 139.733 267.029 138.633 266.959Z" fill="#1C091B"/>
<path fill-rule="evenodd" clip-rule="evenodd" d="M216.894 241.599C216.429 240.607 216.455 239.725 216.969 238.953C217.245 239.854 217.22 240.735 216.894 241.599Z" fill="#1C091B"/>
<path fill-rule="evenodd" clip-rule="evenodd" d="M533.061 304.438C533.071 305.322 533.08 306.205 533.091 307.083C533.082 306.198 533.072 305.318 533.061 304.438Z" fill="#1C091B"/>
<path fill-rule="evenodd" clip-rule="evenodd" d="M268.369 391.089C268.358 390.205 268.348 389.321 268.338 388.443C268.349 389.329 268.359 390.209 268.369 391.089Z" fill="#1C091B"/>
<path fill-rule="evenodd" clip-rule="evenodd" d="M236.996 302.673C237.877 302.747 238.757 302.821 239.637 302.895C238.756 302.821 237.877 302.746 236.996 302.673Z" fill="#1C091B"/>
<path fill-rule="evenodd" clip-rule="evenodd" d="M220.535 244.852C220.398 243.789 220.59 243.395 221.11 243.667C221.246 244.666 221.055 245.061 220.535 244.852Z" fill="#1C091B"/>
<path fill-rule="evenodd" clip-rule="evenodd" d="M253.183 199.927C253.174 200.589 253.166 201.252 253.157 201.911C253.166 201.248 253.174 200.588 253.183 199.927Z" fill="#1C091B"/>
<path fill-rule="evenodd" clip-rule="evenodd" d="M556.19 325.604C556.185 324.942 556.179 324.28 556.173 323.62C556.178 324.282 556.184 324.943 556.19 325.604Z" fill="#1C091B"/>
<path fill-rule="evenodd" clip-rule="evenodd" d="M461.449 42.1716C462.329 42.1703 463.21 42.169 464.09 42.167C463.209 42.1683 462.329 42.1703 461.449 42.1716Z" fill="#1C091B"/>
<path fill-rule="evenodd" clip-rule="evenodd" d="M439.664 122.974L442.305 122.761L439.664 122.974Z" fill="#1C091B"/>
<path fill-rule="evenodd" clip-rule="evenodd" d="M398.074 234.003C397.633 233.996 397.19 233.988 396.754 233.982C397.198 233.989 397.636 233.996 398.074 234.003Z" fill="#1C091B"/>
<path fill-rule="evenodd" clip-rule="evenodd" d="M413.527 360C413.568 359.338 413.608 358.676 413.648 358.016C413.607 358.679 413.568 359.34 413.527 360Z" fill="#1C091B"/>
<path fill-rule="evenodd" clip-rule="evenodd" d="M311.594 370.228C311.152 370.244 310.71 370.261 310.273 370.278C310.717 370.261 311.155 370.243 311.594 370.228Z" fill="#1C091B"/>
<path fill-rule="evenodd" clip-rule="evenodd" d="M253.163 202.573C253.168 203.235 253.172 203.899 253.177 204.557C253.174 203.893 253.168 203.233 253.163 202.573Z" fill="#1C091B"/>
<path fill-rule="evenodd" clip-rule="evenodd" d="M213.23 32.9082C212.569 32.9089 211.906 32.9095 211.25 32.9095C211.915 32.9095 212.573 32.9089 213.23 32.9082Z" fill="#1C091B"/>
<path fill-rule="evenodd" clip-rule="evenodd" d="M216.369 85.4948C217.303 86.1028 217.441 86.7645 216.784 87.4791C215.725 87.3958 215.589 86.7349 216.369 85.4948Z" fill="#1C091B"/>
<path fill-rule="evenodd" clip-rule="evenodd" d="M266.043 58.0244C266.923 58.0376 267.804 58.0509 268.684 58.0641C267.803 58.0509 266.922 58.0376 266.043 58.0244Z" fill="#1C091B"/>
<path fill-rule="evenodd" clip-rule="evenodd" d="M247.232 68.9584C247.23 69.6207 247.228 70.2829 247.226 70.9427C247.228 70.2788 247.23 69.619 247.232 68.9584Z" fill="#1C091B"/>
<path fill-rule="evenodd" clip-rule="evenodd" d="M231.055 70.067L233.695 69.8341L231.055 70.067Z" fill="#1C091B"/>
<path fill-rule="evenodd" clip-rule="evenodd" d="M350.436 191.596C343.968 192.309 335.742 191.69 329.9 188.535C325.849 186.348 323.971 179.179 329.854 178.171C333.157 177.605 337.12 180.52 340.04 181.646C343.516 182.986 347.143 183.616 350.721 184.555C353.151 185.192 356.679 186.801 354.462 190.281C354.061 190.908 350.482 192.802 350.436 191.596Z" fill="#1C091B"/>
<path fill-rule="evenodd" clip-rule="evenodd" d="M441.645 223.481C441.011 227.641 440.916 232.237 438.923 236.039C436.051 241.522 435.485 235.649 435.938 232.637C436.605 228.196 436.967 223.649 436.634 219.16C436.362 215.482 433.891 211.176 435.7 207.865C440.635 211.069 440.736 218.231 441.645 223.481Z" fill="#1C091B"/>
<path fill-rule="evenodd" clip-rule="evenodd" d="M441.869 94.0776C439.139 93.4514 434.673 91.6428 438.521 89.0917C440.085 88.0549 443.166 88.5524 444.912 87.5808C445.969 86.993 446.569 85.7337 447.629 85.2772C451.141 83.7629 451.501 86.3483 450.18 89.636C448.781 93.1136 445.422 94.2465 441.869 94.0776Z" fill="#1C091B"/>
<path fill-rule="evenodd" clip-rule="evenodd" d="M440.29 72.1859C444.776 68.8251 444.166 73.0237 441.795 75.9808C440.913 76.9778 440.03 77.9739 439.146 78.9692L439.921 79.92C439.788 81.2729 441.05 82.2734 439.502 83.159C436.949 84.6223 435.031 81.1641 435.043 79.2493C435.061 76.0721 438.185 74.0798 440.29 72.1859Z" fill="#1C091B"/>
<path fill-rule="evenodd" clip-rule="evenodd" d="M439.712 72.4557C435.524 76.5701 435.68 68.2868 437.907 66.5012C442.18 63.073 439.427 71.0253 439.712 72.4557Z" fill="#1C091B"/>
<path fill-rule="evenodd" clip-rule="evenodd" d="M447.719 75.5683C447.421 74.1089 447.382 67.1975 450.283 67.6573C453.437 68.1571 449.964 75.7856 447.719 75.5683Z" fill="#1C091B"/>
<path fill-rule="evenodd" clip-rule="evenodd" d="M442.305 94.3967C442.747 94.4153 443.189 94.4344 443.625 94.4523C443.181 94.4344 442.743 94.4153 442.305 94.3967Z" fill="#1C091B"/>
<path fill-rule="evenodd" clip-rule="evenodd" d="M241.18 42.5C237.608 36.402 245.761 25.9898 249.843 34.4171C250.397 35.5585 251.65 38.6348 250.142 39.5811C248.523 40.5968 248.87 39.1207 247.537 38.8984C245.949 38.633 246.468 37.8905 244.623 38.6971C243.312 39.27 242.086 41.4483 241.18 42.5Z" fill="#1C091B"/>
</svg>
