<svg width="181" height="40" viewBox="0 0 181 40" fill="none" xmlns="http://www.w3.org/2000/svg">
<path d="M21.6 3.95C23.7 3.95 25.5833 4.18333 27.25 4.65C28.95 5.08333 30.3833 5.73333 31.55 6.6C32.7167 7.43333 33.6167 8.46667 34.25 9.7C34.8833 10.9333 35.2 12.3167 35.2 13.85C35.2 16.35 34.7167 18.4667 33.75 20.2C32.7833 21.9333 31.45 23.3333 29.75 24.4C28.05 25.4667 26.05 26.2333 23.75 26.7C21.45 27.1667 18.95 27.4 16.25 27.4H14.3L11.5 39H3.75L11.9 4.85C13.7 4.51667 15.4 4.28333 17 4.15C18.6333 4.01667 20.1667 3.95 21.6 3.95ZM20.95 10.5C20.3833 10.5 19.9 10.5167 19.5 10.55C19.1 10.5833 18.7 10.6167 18.3 10.65L15.9 20.85H17.85C19.25 20.85 20.5167 20.75 21.65 20.55C22.8167 20.3167 23.8 19.95 24.6 19.45C25.4333 18.95 26.0667 18.3167 26.5 17.55C26.9667 16.75 27.2 15.7833 27.2 14.65C27.2 13.15 26.65 12.0833 25.55 11.45C24.4833 10.8167 22.95 10.5 20.95 10.5ZM33.4453 28.7C33.4453 26.5667 33.812 24.5 34.5453 22.5C35.312 20.5 36.3786 18.7333 37.7453 17.2C39.112 15.6333 40.762 14.3833 42.6953 13.45C44.662 12.4833 46.8286 12 49.1953 12C50.362 12 51.4453 12.1667 52.4453 12.5C53.4453 12.8333 54.312 13.3167 55.0453 13.95C55.812 14.5833 56.3953 15.3667 56.7953 16.3C57.2286 17.2 57.4453 18.2333 57.4453 19.4C57.4453 21.2667 57.0286 22.85 56.1953 24.15C55.362 25.45 54.1953 26.5167 52.6953 27.35C51.2286 28.15 49.4786 28.7333 47.4453 29.1C45.412 29.4667 43.1953 29.65 40.7953 29.65C41.0286 31.05 41.5286 32.05 42.2953 32.65C43.0953 33.2167 44.3453 33.5 46.0453 33.5C47.112 33.5 48.1953 33.4167 49.2953 33.25C50.3953 33.05 51.4286 32.7667 52.3953 32.4L52.9453 38.25C52.012 38.6167 50.812 38.95 49.3453 39.25C47.912 39.55 46.3453 39.7 44.6453 39.7C42.5786 39.7 40.8286 39.4167 39.3953 38.85C37.9953 38.25 36.8453 37.45 35.9453 36.45C35.0786 35.45 34.4453 34.2833 34.0453 32.95C33.6453 31.6167 33.4453 30.2 33.4453 28.7ZM47.9953 17.9C46.2953 17.9 44.7953 18.5167 43.4953 19.75C42.2286 20.95 41.3953 22.55 40.9953 24.55C43.062 24.4833 44.7286 24.3167 45.9953 24.05C47.262 23.75 48.2453 23.4 48.9453 23C49.6453 22.6 50.112 22.1667 50.3453 21.7C50.5786 21.2333 50.6953 20.7667 50.6953 20.3C50.6953 18.7 49.7953 17.9 47.9953 17.9ZM62.609 6.15L70.359 4.95L68.459 12.7H76.759L75.259 18.8H67.009L64.809 28C64.609 28.7667 64.4757 29.4833 64.409 30.15C64.3757 30.8167 64.459 31.4 64.659 31.9C64.8923 32.3667 65.2757 32.7333 65.809 33C66.3423 33.2667 67.0757 33.4 68.009 33.4C68.809 33.4 69.5757 33.3333 70.309 33.2C71.0757 33.0333 71.8423 32.8167 72.609 32.55L73.159 38.25C72.159 38.6167 71.0757 38.9333 69.909 39.2C68.7423 39.4667 67.359 39.6 65.759 39.6C63.459 39.6 61.6757 39.2667 60.409 38.6C59.1423 37.9 58.2423 36.9667 57.709 35.8C57.1757 34.6 56.9423 33.2333 57.009 31.7C57.0757 30.1667 57.309 28.55 57.709 26.85L62.609 6.15ZM73.5098 39L81.8098 4.35H104.26L102.66 10.8H88.0098L86.2598 18.2H99.2098L97.6598 24.65H84.7098L81.2598 39H73.5098ZM109.943 39.7C108.176 39.7 106.643 39.4333 105.343 38.9C104.043 38.3667 102.96 37.6167 102.093 36.65C101.26 35.6833 100.626 34.55 100.193 33.25C99.7596 31.9167 99.543 30.45 99.543 28.85C99.543 26.85 99.8596 24.85 100.493 22.85C101.16 20.85 102.126 19.05 103.393 17.45C104.66 15.85 106.21 14.55 108.043 13.55C109.876 12.5167 111.976 12 114.343 12C116.076 12 117.593 12.2667 118.893 12.8C120.226 13.3333 121.31 14.0833 122.143 15.05C123.01 16.0167 123.66 17.1667 124.093 18.5C124.526 19.8 124.743 21.25 124.743 22.85C124.743 24.85 124.426 26.85 123.793 28.85C123.16 30.85 122.226 32.65 120.993 34.25C119.76 35.85 118.21 37.1667 116.343 38.2C114.51 39.2 112.376 39.7 109.943 39.7ZM113.643 18.3C112.543 18.3 111.576 18.6167 110.743 19.25C109.91 19.8833 109.21 20.6833 108.643 21.65C108.076 22.6167 107.643 23.6833 107.343 24.85C107.076 25.9833 106.943 27.0667 106.943 28.1C106.943 29.8 107.21 31.1167 107.743 32.05C108.276 32.95 109.243 33.4 110.643 33.4C111.743 33.4 112.71 33.0833 113.543 32.45C114.376 31.8167 115.076 31.0167 115.643 30.05C116.21 29.0833 116.626 28.0333 116.893 26.9C117.193 25.7333 117.343 24.6333 117.343 23.6C117.343 21.9 117.076 20.6 116.543 19.7C116.01 18.7667 115.043 18.3 113.643 18.3ZM135.654 39.7C133.887 39.7 132.354 39.4333 131.054 38.9C129.754 38.3667 128.671 37.6167 127.804 36.65C126.971 35.6833 126.337 34.55 125.904 33.25C125.471 31.9167 125.254 30.45 125.254 28.85C125.254 26.85 125.571 24.85 126.204 22.85C126.871 20.85 127.837 19.05 129.104 17.45C130.371 15.85 131.921 14.55 133.754 13.55C135.587 12.5167 137.687 12 140.054 12C141.787 12 143.304 12.2667 144.604 12.8C145.937 13.3333 147.021 14.0833 147.854 15.05C148.721 16.0167 149.371 17.1667 149.804 18.5C150.237 19.8 150.454 21.25 150.454 22.85C150.454 24.85 150.137 26.85 149.504 28.85C148.871 30.85 147.937 32.65 146.704 34.25C145.471 35.85 143.921 37.1667 142.054 38.2C140.221 39.2 138.087 39.7 135.654 39.7ZM139.354 18.3C138.254 18.3 137.287 18.6167 136.454 19.25C135.621 19.8833 134.921 20.6833 134.354 21.65C133.787 22.6167 133.354 23.6833 133.054 24.85C132.787 25.9833 132.654 27.0667 132.654 28.1C132.654 29.8 132.921 31.1167 133.454 32.05C133.987 32.95 134.954 33.4 136.354 33.4C137.454 33.4 138.421 33.0833 139.254 32.45C140.087 31.8167 140.787 31.0167 141.354 30.05C141.921 29.0833 142.337 28.0333 142.604 26.9C142.904 25.7333 143.054 24.6333 143.054 23.6C143.054 21.9 142.787 20.6 142.254 19.7C141.721 18.7667 140.754 18.3 139.354 18.3ZM160.315 39.7C158.648 39.7 157.215 39.4167 156.015 38.85C154.848 38.2833 153.882 37.5167 153.115 36.55C152.382 35.55 151.832 34.4 151.465 33.1C151.132 31.7667 150.965 30.35 150.965 28.85C150.965 26.5833 151.365 24.45 152.165 22.45C152.998 20.4167 154.132 18.65 155.565 17.15C156.998 15.65 158.698 14.4667 160.665 13.6C162.632 12.7333 164.782 12.3 167.115 12.3C167.715 12.3 168.265 12.3333 168.765 12.4C169.298 12.4667 169.832 12.5667 170.365 12.7L173.065 1.4L180.815 0.199999L174.215 27.65C173.748 29.55 173.615 31.4667 173.815 33.4C174.015 35.3 174.398 37 174.965 38.5L168.315 39.45C168.115 39.05 167.932 38.6667 167.765 38.3C167.598 37.9333 167.432 37.5167 167.265 37.05C166.332 37.8167 165.282 38.45 164.115 38.95C162.982 39.45 161.715 39.7 160.315 39.7ZM168.915 18.65C168.715 18.6167 168.532 18.5833 168.365 18.55C168.232 18.5167 168.082 18.5 167.915 18.5C167.782 18.4667 167.598 18.45 167.365 18.45C167.132 18.45 166.832 18.45 166.465 18.45C165.298 18.45 164.215 18.7333 163.215 19.3C162.215 19.8333 161.348 20.5667 160.615 21.5C159.915 22.4333 159.365 23.5 158.965 24.7C158.565 25.8667 158.365 27.0667 158.365 28.3C158.365 29.9 158.632 31.1667 159.165 32.1C159.732 33 160.732 33.45 162.165 33.45C162.932 33.45 163.632 33.3 164.265 33C164.898 32.7 165.565 32.2 166.265 31.5C166.332 30.6667 166.432 29.8 166.565 28.9C166.732 27.9667 166.898 27.1167 167.065 26.35L168.915 18.65Z" fill="white"/>
<ellipse cx="111" cy="27.5" rx="8" ry="10.5" fill="white"/>
<ellipse cx="139" cy="28" rx="8" ry="11" fill="white"/>
</svg>
